<?xml version="1.0"?>
<svg width="400" height="400" xmlns="http://www.w3.org/2000/svg" xmlns:svg="http://www.w3.org/2000/svg" xmlns:xlink="http://www.w3.org/1999/xlink" preserveAspectRatio="none">
 <!-- Created with SVG-edit - http://svg-edit.googlecode.com/ -->
 <defs>
  <symbol id="svg_64" viewBox="0 0 550 400" height="400px" width="550px" y="0px" x="0px" preserveAspectRatio="none" xmlns:xlink="http://www.w3.org/1999/xlink" xmlns="http://www.w3.org/2000/svg">
   <defs>
    <g id="svg_63">
     <path d="m209.9,143.65q0,-0.55 -0.4,-0.95l-31.25,-31.2q-0.35,-0.4 -0.9,-0.4q-0.55,0 -0.95,0.4q-0.4,0.4 -0.4,0.95q0,0.55 0.4,0.95l31.2,31.2q0.4,0.4 0.95,0.4q0.55,0 0.95,-0.4q0.4,-0.35 0.4,-0.95z" fill="#000000"/>
    </g>
    <g id="svg_62">
     <path d="m212.75,140.8q0,-0.6 -0.35,-0.95l-31.25,-31.25q-0.4,-0.35 -0.95,-0.35q-0.55,0 -0.95,0.35q-0.4,0.4 -0.4,0.95q0,0.6 0.4,0.95l31.25,31.25q0.4,0.4 0.95,0.4q0.55,0 0.95,-0.4q0.35,-0.4 0.35,-0.95z" fill="#000000"/>
    </g>
    <g id="svg_61">
     <path d="m215.6,137.95q0,-0.55 -0.4,-0.95l-31.2,-31.25q-0.4,-0.35 -0.95,-0.35q-0.55,0 -0.95,0.35q-0.4,0.4 -0.4,0.95q0,0.6 0.4,0.95l31.2,31.25q0.4,0.4 0.95,0.4q0.6,0 0.95,-0.4q0.4,-0.4 0.4,-0.95z" fill="#000000"/>
    </g>
    <g id="svg_60">
     <path d="m218.45,135.1q0,-0.55 -0.4,-0.95l-31.2,-31.2q-0.4,-0.4 -0.95,-0.4q-0.55,0 -0.95,0.4q-0.4,0.4 -0.4,0.95q0,0.55 0.4,0.95l31.2,31.2q0.4,0.4 0.95,0.4q0.6,0 0.95,-0.4q0.4,-0.4 0.4,-0.95z" fill="#000000"/>
    </g>
    <g id="svg_59">
     <path d="m185.9,102.55q-0.55,0 -0.95,0.4l-31.25,31.2q-0.35,0.4 -0.35,0.95q0,0.55 0.35,0.95q0.4,0.4 0.95,0.4q0.6,0 0.95,-0.4l31.25,-31.2q0.4,-0.4 0.4,-0.95q0,-0.55 -0.4,-0.95q-0.4,-0.4 -0.95,-0.4z" fill="#000000"/>
    </g>
    <g id="svg_58">
     <path d="m188.8,105.45q-0.55,0 -0.95,0.35l-31.25,31.25q-0.4,0.4 -0.4,0.95q0,0.55 0.4,0.95q0.4,0.4 0.95,0.4q0.55,0 0.95,-0.4l31.2,-31.25q0.4,-0.4 0.4,-0.95q0,-0.55 -0.4,-0.95q-0.35,-0.35 -0.9,-0.35z" fill="#000000"/>
    </g>
    <g id="svg_57">
     <path d="m191.6,108.25q-0.55,0 -0.95,0.4l-31.2,31.25q-0.4,0.4 -0.4,0.95q0,0.55 0.4,0.9q0.4,0.4 0.95,0.4q0.55,0 0.95,-0.4l31.2,-31.2q0.4,-0.4 0.4,-0.95q0,-0.55 -0.4,-0.95q-0.35,-0.4 -0.95,-0.4z" fill="#000000"/>
    </g>
    <g id="svg_56">
     <path d="m194.45,111.1q-0.55,0 -0.95,0.4l-31.2,31.2q-0.4,0.4 -0.4,0.95q0,0.6 0.4,0.95q0.4,0.4 0.95,0.4q0.55,0 0.95,-0.4l31.2,-31.2q0.4,-0.4 0.4,-0.95q0,-0.55 -0.4,-0.95q-0.4,-0.4 -0.95,-0.4z" fill="#000000"/>
    </g>
    <g id="svg_55">
     <path d="m208.55,125.2q-0.55,0 -0.95,0.4l-31.2,31.2q-0.4,0.4 -0.4,0.95q0,0.55 0.4,0.95q0.4,0.4 0.95,0.4q0.55,0 0.9,-0.4l31.25,-31.2q0.4,-0.4 0.4,-0.95q0,-0.55 -0.4,-0.95q-0.4,-0.4 -0.95,-0.4z" fill="#000000"/>
    </g>
    <g id="svg_54">
     <path d="m211.45,128.1q-0.55,0 -0.95,0.35l-31.25,31.25q-0.4,0.4 -0.4,0.95q0,0.55 0.4,0.95q0.4,0.4 0.95,0.4q0.55,0 0.95,-0.4l31.25,-31.25q0.4,-0.35 0.4,-0.95q0,-0.55 -0.4,-0.95q-0.4,-0.35 -0.95,-0.35z" fill="#000000"/>
    </g>
    <g id="svg_53">
     <path d="m214.25,130.95q-0.55,0 -0.95,0.35l-31.2,31.25q-0.4,0.4 -0.4,0.95q0,0.55 0.4,0.95q0.4,0.35 0.95,0.35q0.55,0 0.95,-0.35l31.2,-31.25q0.4,-0.4 0.4,-0.95q0,-0.55 -0.4,-0.95q-0.35,-0.35 -0.95,-0.35z" fill="#000000"/>
    </g>
    <g id="svg_52">
     <path d="m217.1,133.75q-0.55,0 -0.95,0.4l-31.2,31.25q-0.4,0.4 -0.4,0.95q0,0.55 0.4,0.9q0.4,0.4 0.95,0.4q0.55,0 0.95,-0.4l31.2,-31.2q0.4,-0.4 0.4,-0.95q0,-0.55 -0.4,-0.95q-0.4,-0.4 -0.95,-0.4z" fill="#000000"/>
    </g>
    <g id="svg_51">
     <path d="m163.25,125.2q-0.55,0 -0.95,0.4q-0.4,0.4 -0.4,0.95q0,0.55 0.4,0.95l31.2,31.2q0.4,0.4 0.95,0.4q0.55,0 0.95,-0.4q0.4,-0.4 0.4,-0.95q0,-0.55 -0.4,-0.95l-31.2,-31.2q-0.4,-0.4 -0.95,-0.4z" fill="#000000"/>
    </g>
    <g id="svg_50">
     <path d="m192.9,160.65q0,-0.55 -0.4,-0.95l-31.2,-31.25q-0.4,-0.35 -0.95,-0.35q-0.55,0 -0.95,0.35q-0.4,0.4 -0.4,0.95q0,0.6 0.4,0.95l31.25,31.25q0.4,0.4 0.95,0.4q0.55,0 0.9,-0.4q0.4,-0.4 0.4,-0.95z" fill="#000000"/>
    </g>
    <g id="svg_49">
     <path d="m190.1,163.5q0,-0.55 -0.4,-0.95l-31.25,-31.25q-0.4,-0.35 -0.95,-0.35q-0.55,0 -0.95,0.35q-0.35,0.4 -0.35,0.95q0,0.55 0.35,0.95l31.25,31.25q0.4,0.4 0.95,0.4q0.55,0 0.95,-0.4q0.4,-0.4 0.4,-0.95z" fill="#000000"/>
    </g>
    <g id="svg_48">
     <path d="m187.25,166.35q0,-0.55 -0.4,-0.95l-31.25,-31.25q-0.35,-0.4 -0.95,-0.4q-0.55,0 -0.95,0.4q-0.35,0.4 -0.35,0.95q0,0.55 0.35,0.95l31.25,31.2q0.4,0.4 0.95,0.4q0.55,0 0.95,-0.4q0.4,-0.35 0.4,-0.9z" fill="#000000"/>
    </g>
   </defs>
   <g transform="matrix( 2.935302734375, 0, 0, 2.935302734375, -272.8,-184.5) ">
    <use xlink:href="#svg_63"/>
   </g>
   <g transform="matrix( 2.935302734375, 0, 0, 2.935302734375, -272.8,-184.5) ">
    <use xlink:href="#svg_62"/>
   </g>
   <g transform="matrix( 2.935302734375, 0, 0, 2.935302734375, -272.8,-184.5) ">
    <use xlink:href="#svg_61"/>
   </g>
   <g transform="matrix( 2.935302734375, 0, 0, 2.935302734375, -272.8,-184.5) ">
    <use xlink:href="#svg_60"/>
   </g>
   <g transform="matrix( 2.935302734375, 0, 0, 2.935302734375, -272.8,-184.5) ">
    <use xlink:href="#svg_59"/>
   </g>
   <g transform="matrix( 2.935302734375, 0, 0, 2.935302734375, -272.8,-184.5) ">
    <use xlink:href="#svg_58"/>
   </g>
   <g transform="matrix( 2.935302734375, 0, 0, 2.935302734375, -272.8,-184.5) ">
    <use xlink:href="#svg_57"/>
   </g>
   <g transform="matrix( 2.935302734375, 0, 0, 2.935302734375, -272.8,-184.5) ">
    <use xlink:href="#svg_56"/>
   </g>
   <g transform="matrix( 2.935302734375, 0, 0, 2.935302734375, -272.8,-184.5) ">
    <use xlink:href="#svg_55"/>
   </g>
   <g transform="matrix( 2.935302734375, 0, 0, 2.935302734375, -272.8,-184.5) ">
    <use xlink:href="#svg_54"/>
   </g>
   <g transform="matrix( 2.935302734375, 0, 0, 2.935302734375, -272.8,-184.5) ">
    <use xlink:href="#svg_53"/>
   </g>
   <g transform="matrix( 2.935302734375, 0, 0, 2.935302734375, -272.8,-184.5) ">
    <use xlink:href="#svg_52"/>
   </g>
   <g transform="matrix( 2.935302734375, 0, 0, 2.935302734375, -272.8,-184.5) ">
    <use xlink:href="#svg_51"/>
   </g>
   <g transform="matrix( 2.935302734375, 0, 0, 2.935302734375, -272.8,-184.5) ">
    <use xlink:href="#svg_50"/>
   </g>
   <g transform="matrix( 2.935302734375, 0, 0, 2.935302734375, -272.8,-184.5) ">
    <use xlink:href="#svg_49"/>
   </g>
   <g transform="matrix( 2.935302734375, 0, 0, 2.935302734375, -272.8,-184.5) ">
    <use xlink:href="#svg_48"/>
   </g>
  </symbol>
 </defs>
 <g>
  <title>Layer 1</title>
  <use x="0" y="0" transform="matrix(2.865239991481399,0,0,2.0848932251611423,-368.5055086151345,-241.71284291331244) " xlink:href="#svg_64" id="svg_65"/>
  <g id="svg_66"/>
 </g>
</svg>